# xmcd
#
# Track frame offsets: 
#        150
#        3622
#        18316
#        35874
#        54299
#        71961
#        88689
#        106851
#        126826
#        144883
#        162051
#        176914
#        194494
#        211317
#        226927
#        242328
#        258531
#        278282
#
# Disc length: 3887 seconds
#
# Revision: 0
# Processed by: cddbd v1.5.2PL0 Copyright (c) Steve Scherf et al.
# Submitted via: ExactAudioCopyFreeDBPlugin 1.0
#
DISCID=f40f2d12
DTITLE=Abroo - Zwischen Liebe und Hass
DYEAR=2006
DGENRE=Rap
TTITLE0=Intro
TTITLE1=Ruft meinen Namen
TTITLE2=Heavyweight Champions feat. Snaga and Pillath
TTITLE3=Komm schon
TTITLE4=Ihr seid alles
TTITLE5=Denken und Sprechen feat. Separate
TTITLE6=Taxi Driver
TTITLE7=Alles was ich wollte feat. CJ Taylor
TTITLE8=Oh Daddy
TTITLE9=Bereit zu lernen feat. Paolo Magic
TTITLE10=Kein Respekt
TTITLE11=Oh mein Gott feat. Sean Price
TTITLE12=Alarmstufe Rot
TTITLE13=Mach dein Geld feat. Separate and Vega
TTITLE14=Zurück
TTITLE15=Lasst uns vorbei feat. Kobra
TTITLE16=Lass es regnen feat. BW Allstars
TTITLE17=Wer hätte gedacht
EXTD=
EXTT0=
EXTT1=
EXTT2=
EXTT3=
EXTT4=
EXTT5=
EXTT6=
EXTT7=
EXTT8=
EXTT9=
EXTT10=
EXTT11=
EXTT12=
EXTT13=
EXTT14=
EXTT15=
EXTT16=
EXTT17=
PLAYORDER=
